PathFileType	4	(X/Y/Z)	38_1_31_p1_0-358_filt_butterworth.trc
DataRate	CameraRate	NumFrames	NumMarkers	Units	OrigDataRate	OrigDataStartFrame	OrigNumFrames
59.0	59.0	5	27	m	59.0	179	358
Frame#	Time	RHip			RKnee			RAnkle			RBigToe			RSmallToe			RHeel			LHip			LKnee			LAnkle			LBigToe			LSmallToe			LHeel			Neck			Head			Nose			RShoulder			RElbow			RWrist			RThumb			RIndex			RPinky			LShoulder			LElbow			LWrist			LThumb			LIndex			LPinky			
		X1	Y1	Z1	X2	Y2	Z2	X3	Y3	Z3	X4	Y4	Z4	X5	Y5	Z5	X6	Y6	Z6	X7	Y7	Z7	X8	Y8	Z8	X9	Y9	Z9	X10	Y10	Z10	X11	Y11	Z11	X12	Y12	Z12	X13	Y13	Z13	X14	Y14	Z14	X15	Y15	Z15	X16	Y16	Z16	X17	Y17	Z17	X18	Y18	Z18	X19	Y19	Z19	X20	Y20	Z20	X21	Y21	Z21	X22	Y22	Z22	X23	Y23	Z23	X24	Y24	Z24	X25	Y25	Z25	X26	Y26	Z26	X27	Y27	Z27	
179	3.0338983050847457	0.37259760495432437	0.762973937004007	0.5435652585295299	0.3613955768908871	0.8893228699987713	0.9501903200975031	0.3737199473390683	1.050770890263653	1.3590408739176447	0.3231045925042541	0.8664502923141857	1.4334893664971902	0.39281942005873616	0.8623331786013213	1.4263305697410227	0.35939308490903094	1.17509833808162	1.4143578621117898	0.15617419836642946	0.7930581958163094	0.5417642472390786	0.15777398771289872	0.9218687896017792	0.9422683675271051	0.1627822358320177	1.0607074262788148	1.3350321696671354	0.16181838460283798	0.871421175148264	1.408043658290489	0.11016015844324785	0.9202130701146124	1.4060018455572592	0.18643560595099076	1.131692784926146	1.395429414742825	0.26595779030098504	0.632099144567358	0.008771441489774068	0.2665471638371103	0.47498251892159093	-0.21869629806846133	0.2429308737241514	0.4420786037285456	-0.061825980271007754	0.4143399528237924	0.6013422741842724	0.10320600690665138	0.43130771099362497	0.6425125650068986	0.3725378466182766	0.3208218940458799	0.5988375635731631	0.5648120117641029	0.22992435082492785	0.6199074150759665	0.6243020000183156	0.2280717314155679	0.6365456274400237	0.6299753460213595	0.23247965049482072	0.6257530576283911	0.6349290269280599	0.10445341390321251	0.6454067841634085	0.08875943207001183	0.08936952444641257	0.6715729456092003	0.3464716765799816	0.2014813726557022	0.6613749920585155	0.5396515305317485	0.24086797282418965	0.5953107378291581	0.6151388332339041	0.2474832182335041	0.6109541742502014	0.6290111469930733	0.245662148096835	0.644026608236724	0.6341597926488707
180	3.0508474576271185	0.37493848279014497	0.7615446101113589	0.543577164529454	0.3611626174215621	0.8886055784075387	0.9495158585611785	0.3737193987977748	1.050752942950382	1.359038644079401	0.32467933368826685	0.8703300269525576	1.4347064836242522	0.3928295992338757	0.8623904879177986	1.4263469764353762	0.3593921983193439	1.1750877428948423	1.4143522832922277	0.15617537000212106	0.7930452918611305	0.541735438530229	0.15759956383105525	0.921860194118688	0.9433925307954164	0.16278978539411243	1.060587569943209	1.3350149650942065	0.16180932966338502	0.8715837938489279	1.40807962004729	0.11015922070571951	0.9202027237208164	1.4060276470359259	0.18520311195826317	1.1305886700448906	1.3950112113167408	0.26592025185219226	0.6319987102435108	0.008772770950697565	0.2664783423524315	0.47483321515745935	-0.2187573142838839	0.24266148792752654	0.4422328294392077	-0.0607304991541319	0.4143590401245889	0.601410230090887	0.10324125093732268	0.4314240064753525	0.6426088944945527	0.3738006258495256	0.32084218488181293	0.59886483738439	0.56482298417116	0.23034061420584967	0.6211768050204481	0.624375944779694	0.22803555797622455	0.636547087299907	0.6299410927400185	0.23245960605717414	0.62573343247756	0.6349319641735993	0.10446466335873744	0.6453630975892879	0.08876531678528993	0.08832817785410235	0.6765466599205265	0.34728198916830105	0.20223231916153925	0.6615109539342107	0.5396476233603964	0.24071956218760063	0.5950955144470618	0.6150191523470304	0.24746569662286888	0.6109363694687014	0.6289865104684569	0.24567166661832585	0.6439259088249327	0.6341663549941909
181	3.067796610169492	0.37675001233225075	0.7615855334927286	0.5435760847822919	0.36108207374483087	0.8883040469248807	0.9498654549386649	0.37371886725112524	1.0507300142517562	1.3590463544552391	0.3254315185664929	0.8721935218734347	1.4353986755782258	0.3927980020924425	0.8623474003409737	1.426379172084369	0.35940295936128924	1.1750827577291414	1.414338916848098	0.1561857814947233	0.7930575924888469	0.5417472685037071	0.15742933969463968	0.9218413311330337	0.9447593268959469	0.16280680741040696	1.0605289815398025	1.335003821310746	0.16178741218620873	0.8715772431902346	1.4080766008458754	0.11015197599868486	0.9201759782793333	1.4060591072708877	0.1847937549115395	1.1301001114380702	1.3948353276855356	0.26590721443169524	0.6319472369445022	0.008784011734518076	0.2664352909323152	0.47472570144561976	-0.2187598504355524	0.24173578154091319	0.4421278424115039	-0.059808329961907804	0.4143669244567809	0.6014320370946433	0.10323552148050466	0.43149100304439136	0.6427235631237899	0.3743938225075543	0.32086335081314565	0.5989191965581178	0.564837313592927	0.23034293574581657	0.6211932049204402	0.6244156348057404	0.22802561069500177	0.6366094225310759	0.6299406666679556	0.23238206991392646	0.625591488199103	0.6349214002227734	0.10453908094090261	0.6449826310171214	0.0888091584042123	0.0874902037535922	0.6801406230983991	0.34834510717121997	0.20138557800182436	0.6612899954905209	0.5396241500603475	0.23962402222536833	0.5943330590452583	0.6149336198652026	0.24743094053250198	0.6108740064667421	0.6289454348136021	0.24567955403453445	0.6437272082644351	0.6341120426201919
182	3.0847457627118646	0.3773848394869284	0.7619160179292789	0.5435656868324544	0.36106964197672176	0.888325995589258	0.9500056964726913	0.37371834942353577	1.0507065609208754	1.359057276648606	0.32550337071379026	0.8724433028547298	1.4355587274088621	0.39274686466942765	0.8622949390012422	1.4264310142224677	0.3594212062499992	1.1750843866778955	1.4143206715837984	0.15620546601458302	0.7930907850472737	0.5418062399808526	0.1573592646744587	0.921820937650968	0.9453904381836297	0.1628191749661487	1.0605249206602534	1.3349788007225858	0.16176357332681401	0.871532210410297	1.4080599330952872	0.11014952402364009	0.920149896637111	1.4060768701692845	0.1848487641055705	1.1299977517355648	1.3948470145317766	0.26592212557977496	0.6319339329525986	0.008791244673566056	0.26642756203877616	0.47471048659060067	-0.2184482345472043	0.24043639272819217	0.4418525042191175	-0.05934274940209352	0.4143545583296981	0.6014066043084907	0.10318650961774604	0.4314951679178971	0.6428024579346892	0.37382864552490125	0.32088672958805237	0.5989997309288675	0.5648543636785429	0.23025110861336334	0.6209234990631424	0.6244312489004971	0.22802840525286613	0.6366777371456469	0.6299602558965974	0.23226641539526371	0.6253279612469822	0.6349135546260347	0.10458413108225947	0.6447256934115025	0.08884484671941013	0.08716191944597806	0.6817012819051631	0.3491517278211988	0.1994065739099633	0.6607733737678726	0.5395938531101139	0.23892076501790444	0.5938191795577634	0.614918689094368	0.24740872701637118	0.6108221651029851	0.628926368617058	0.24568025969944962	0.6435513337095458	0.6340472573111845
183	3.101694915254237	0.37689433124997596	0.7619696148245311	0.5435070399691535	0.361049485172805	0.8884440991182205	0.9490701445584326	0.37371678635078553	1.05068380111678	1.3590634927092093	0.3252473470759977	0.871922783253812	1.4354319180754034	0.3926997591294089	0.8622567989577885	1.426479187193325	0.35943920247844846	1.175108505598897	1.414297678214247	0.15621288360555172	0.7930616981979919	0.5418994986342212	0.15742176098335442	0.921803602045995	0.9447431028200426	0.16281841792609797	1.060527994325314	1.3349261160867614	0.1617673001400292	0.871603112119576	1.4081932488592253	0.11015187808613086	0.9201382357323816	1.406070743141747	0.18496246783564946	1.1299618630340507	1.3949195685081046	0.26595090831167517	0.6319494913753319	0.008794193683509591	0.26643899306090024	0.47479450134228796	-0.21762904543414185	0.23942202345656266	0.44163146427289773	-0.05929477853751438	0.41429428386917055	0.6012063334988806	0.10283767443413187	0.4314637745291501	0.6428058471965967	0.37258945292761914	0.32091460559178075	0.5991025196311168	0.5648701265535829	0.23020445687378926	0.6207742053791908	0.6244362231955458	0.22803806436269194	0.6367353779862635	0.6299815442722113	0.23226783418267147	0.6253041946437665	0.63494247220497	0.10458172338974571	0.6446086871597362	0.08886968453536383	0.0871837497598334	0.6820569432670157	0.3494948048412264	0.19785301221137996	0.6602943597836057	0.539573219275959	0.23952777524133823	0.5946732951854126	0.6149755204185835	0.24740700159754603	0.6108187080212429	0.6289271102840237	0.2456807994431833	0.6434409768856427	0.6340052043136138
